<?xml version="1.0" standalone="no"?>
<!DOCTYPE svg PUBLIC "-//W3C//DTD SVG 1.1//EN" "http://www.w3.org/Graphics/SVG/1.1/DTD/svg11.dtd" >
<svg xmlns="http://www.w3.org/2000/svg" xmlns:svg="http://www.w3.org/2000/svg" xmlns:xlink="http://www.w3.org/1999/xlink" viewBox="0 0 1024 1024"><path d="M158.71 390.99Q176.49 370.53 273.95 287.48Q277.18 258.4 297.31 261.52Q274.19 253.94 287.31 249.11Q309.72 267.69 301.03 261.3Q327.13 275.49 332.42 284.97Q367.27 312.58 402.14 309.78Q445.11 311.56 455.12 324.19Q444.9 336.59 451.8 341.56Q427.17 337.46 458.89 356.97Q440.66 342.42 442.09 346.95Q406.2 347.94 403.87 386.9Q387.66 425.31 372.98 423.08Q406.85 439.29 394.07 424.1Q399.53 417.61 433.65 435Q448.69 428.87 481.61 424.81Q459.44 447.37 478.24 463.34Q496.49 470.56 472.38 536.62Q500.85 612.74 499.93 625.04Q498.88 690.17 467.33 704.8Q487.21 732.48 468.76 753.46Q418.32 733.9 318.46 735.69Q249.78 746.69 201.07 722.93Q192.24 730 187.38 725.2Q154.26 696.91 172.22 676.23Q142.96 650.22 148.55 519.96Q153.29 515.9 144.73 485.22Q173.34 443.04 178 396.48ZM556.15 780.59Q544.56 740.05 550.15 712.19Q594.47 680.91 616 642.78Q653.4 536.06 657.29 547.59Q663.43 543.25 672.9 535.81Q630.45 547.09 617.02 521.59Q592.67 515.47 566.51 540.3Q533.36 540.1 533.25 542.07Q547.18 540.07 546.18 496.5Q521.65 518.61 532.81 488.02Q521.8 490.15 520.56 469.23Q541.36 484.6 570.39 451.92Q602.09 476.53 603.46 466.59L684.43 475.86L681.09 427.36Q699.63 405.17 712.28 401.95Q703.05 376.34 680.44 396.63Q705.26 379.31 693.26 393.08Q657.1 373.43 641.91 377.04Q610.64 388.75 622.96 376.49Q593.25 401.24 588.71 408.9Q599.18 386.13 602.39 390.05Q570.94 366.9 586.61 354.82Q570.37 358.63 592.4 331.88Q593.17 320.71 584.16 313.32Q611.21 327.61 636.4 333.81Q652.66 332.19 699.29 308.68Q760.2 275.45 780.45 288.99Q830.1 296.87 823.7 273.4Q860 302.97 869.14 287.89Q869.87 291.19 843.36 316.77Q866.79 327.3 864.8 336.52Q821.66 361.38 813.19 371.1L778.98 382.61L770.04 432.92Q775.16 416.95 780.23 460.96L756.53 441.41Q758.41 475.17 774.78 471.08Q818.07 463.91 837.19 463.98Q859.33 461.08 891.47 476.35Q907.64 481.42 908.85 480.78Q923.58 476.55 938.04 497.07Q927.97 503.29 943.21 494.85Q931.46 495.21 935.5 482.67Q943.61 514.34 936.31 519.41Q922.5 506.27 932.15 506.86Q921.28 549.97 889.81 513.39Q890.25 524.43 880.93 531.66Q847.1 517.52 842.29 526.27Q810.22 549.4 808.81 519.92Q779.34 527.7 806.38 551.79Q788.06 528.09 778.19 557.57Q790.26 590.02 831.63 603.68Q846.88 601.13 841.51 617.25Q874.4 661.04 860.01 677.08Q872.07 681.72 896.39 698.01Q910.58 704.25 907.78 717.58Q935.73 707.07 934.46 730.64Q924.12 766.12 930.63 782.31Q930.94 782.29 897.41 795.36Q872.1 798.48 865.3 772.58Q833.76 713.13 784.19 702.74Q784.19 661.71 799.57 668.38Q760.12 648.24 762.71 678.45Q790.52 671.91 784.58 700.42Q774.93 748.73 779.4 799.86V922.36L758.99 954.47Q757.82 957.86 753.16 938.65Q733.07 945.44 712.56 946.44Q719.89 959.27 727.29 929.29Q698.02 933 691.16 952.96Q704.78 923.32 694.93 897.71Q710.84 856.29 701.69 780.22Q689.11 734.75 706.14 680.97Q679.06 644.71 696.01 663.5Q688.08 644.75 679.53 666.65Q684.04 667.98 670.46 681.61Q665.42 670.54 662.23 712.34Q655.82 747.6 628.88 784.22Q605.31 795.64 582.46 846.33Q568.46 843.81 576.86 848.32Q551.28 842.68 553.97 849Q560.95 826.55 572.46 827.19Q543.54 859.82 520.34 851.21Q535.77 805 518.69 821.1Q508.69 808.1 544.71 777.75ZM110.3 146.1Q140.47 135.38 179.76 144.75Q211.55 138.19 248.73 112.84L337.13 112.64L361.33 91.62Q379.64 86 359.79 92.88Q360.89 82.33 360.61 87.83Q374.79 83.7 394.01 68.06Q396.83 51.8 417.53 57.82Q422.87 51.25 417.23 95.27Q445.81 109.16 452.05 118.39Q451.33 89.68 435.16 114.6Q456.82 117.49 424.35 133.69Q424.25 118.05 432.67 99.97Q420.94 117.31 430.89 116.06Q463 116.82 482.38 125.03Q512.8 115.27 522.31 119.93Q547.85 119.3 566.45 136.09Q589.33 153.85 626.88 143.99Q603.47 119.5 639.39 112.87Q623.65 109.64 601.91 124.39Q628.88 92.66 613.83 107.43Q660.51 64.14 658.61 75.86Q677.45 73.84 659.39 80.61Q693.39 77.27 709.99 121.35Q695.27 129.41 697.51 130.72Q704.24 127.49 701.39 140.83Q707.49 146.61 717.41 137.6Q742.24 128.38 789.71 147.36Q874.75 116.16 889.64 129.07Q913.03 122.37 904.46 165.48Q915.13 181.53 921.35 167.31Q935.22 160.53 941.54 176.65Q924.61 195.04 926.89 201.37Q903.14 205.8 902.94 185.95Q896.02 196.9 841.45 187.87Q828.66 217.34 811.95 191.54Q721.91 222.64 731.41 226.17Q689.04 206.05 693.61 239.81Q700.55 242.71 685.94 215.71Q664.29 241.14 688.48 254.28Q647.84 236.57 649.5 275.91Q637.47 275.81 624.48 249.49Q624.08 249.77 606.58 232.38Q589.44 221.54 607.06 227.99Q620.9 196.15 618.14 209.29Q588.48 222.68 591.57 220.53Q553.19 208.53 542.1 211.38L452.35 185.21L444.03 230.66Q433.3 268.46 429.24 259.39Q379.7 232.65 392.99 225.58L369.33 180.88H267.31Q212.35 201.29 185.53 214.06Q171.43 199.33 161.69 185.17Q152.02 192.08 131.84 201.56Q121.38 169.11 118.4 183.06Q124.54 141.63 109.58 138.38Q104.62 143.02 131.52 142.3ZM101.83 900.3Q85.12 890.16 84.2 888.21Q117.99 862.27 125.83 851.28Q144.46 811.59 138.55 785.25Q161.21 792.98 168.34 787.51Q176.44 784.56 179.29 786.66Q187.76 793.96 180.64 788.97Q169.53 798.39 186.87 787.62Q208.04 820.28 169.62 887.14Q155.91 905.97 141.29 933.84Q147.13 925.63 127.01 914.99Q139.43 918.84 112.99 919.65Q105.05 909.35 94.05 915.48ZM432.47 793.07Q435.3 780.21 446.81 786.48Q430.29 766.98 439.62 761.26Q484.9 808.17 496.93 852.87Q499.72 848.53 485.78 865.2Q515.52 885.81 511.65 878.22Q504.28 888.91 485.81 876.14Q493.64 906.76 460.24 900.72Q448.58 922.05 457.64 903.81Q457.69 914.68 447.8 880.85Q409.23 849.2 420.63 843.47Q404.87 820.32 431.84 799.36Q415.95 822.22 390.67 815.87Q407.59 786.97 409.83 779.32Q425.58 799.89 413.53 783.47ZM232.29 787.7Q226 793.19 237.61 780.81Q250.14 766.27 254.93 782.5Q259.34 820.98 270.6 836.43Q292.91 854.49 269 868.78Q268.7 876.33 303.89 889.41Q263.13 906.86 264.75 938.17Q283.83 903.34 248.2 922.93Q271.02 915.2 224.71 914.99Q249.24 898.12 215.94 877.18Q198.5 812.35 227.27 812.24Q220.29 770.4 212.71 780.16ZM322.47 798.37Q324.56 785.31 316.05 776.12Q306.45 782.52 332.18 770.63Q348.62 772.69 362.15 782.04Q364.35 784.93 344.37 793.56Q342.1 814.09 365.02 802.37Q375.5 846.83 365.31 847.74Q381.59 857.62 370.08 875.96Q389.99 895.74 378.9 893.38Q387.08 889.41 387.5 883.56Q360.17 915.6 353.75 937.88Q340.97 920.82 357.86 909.64Q330.87 878 306.08 860.15Q305.76 810.5 326.17 821.14ZM214.9 434.5L332.88 438.31L321.42 393.08Q335.64 360.78 344.74 348.97Q323.68 365.45 322.44 375.43Q353.67 364.47 326.06 348.62Q316.3 333.67 317.76 346.74Q318.39 341.19 310.03 357.55Q280.74 336.72 283.55 355.8Q247.72 373.26 243.86 399.98Q255.23 379.46 233.93 397.36ZM342.39 654.7L409.6 658.94V628.74L373.8 609.13ZM347.48 491.1V535.11Q338.23 533.47 349.92 544.13Q374.04 551.18 391.43 533.06Q409.04 533.19 382.78 559.99Q403.8 543.48 404.43 560.02Q410.85 539.04 444.13 544.19Q427.08 516.17 440.25 513.58V489.38L400.34 515.21H380.95Q346.38 505.55 372.18 488.97Q349.43 484.38 345.48 523.77ZM305.5 557.44L300.7 516.88H240.65V564.07ZM243.89 594.31L235.12 656.67Q224.61 672.19 239.39 647.57Q216 647.53 252.28 672.21L304.76 686.14V632.03Z" fill="black"></path></svg>