<?xml version="1.0" standalone="no"?>
<!DOCTYPE svg PUBLIC "-//W3C//DTD SVG 1.1//EN" "http://www.w3.org/Graphics/SVG/1.1/DTD/svg11.dtd" >
<svg xmlns="http://www.w3.org/2000/svg" xmlns:svg="http://www.w3.org/2000/svg" xmlns:xlink="http://www.w3.org/1999/xlink" viewBox="0 0 1024 1024"><path d="M167.0 404.0Q182.0 370.0 260.0 281.0Q272.0 265.0 278.5 264.5Q285.0 264.0 286.0 264.0Q298.0 264.0 317.0 278.0Q326.0 285.0 342.5 289.5Q359.0 294.0 384.0 296.0Q432.0 299.0 438.0 308.0Q443.0 318.0 443.0 329.0Q443.0 332.0 442.0 340.0Q441.0 348.0 432.0 355.0Q422.0 364.0 404.5 389.5Q387.0 415.0 386.0 425.0Q387.0 427.0 399.0 430.0Q411.0 433.0 429.0 434.0Q452.0 434.0 464.0 438.0Q476.0 442.0 481.0 449.0Q490.0 474.0 490.5 535.0Q491.0 596.0 491.0 606.0Q491.0 698.0 483.0 724.0Q483.0 733.0 457.0 735.0Q431.0 737.0 335.0 737.0Q242.0 737.0 214.0 735.0Q186.0 733.0 179.0 724.0Q164.0 715.0 159.5 673.5Q155.0 632.0 155.0 530.0Q155.0 515.0 155.0 501.0Q155.0 432.0 167.0 404.0ZM539.0 761.0Q553.0 731.0 567.0 713.0Q582.0 695.0 624.0 624.0Q666.0 553.0 672.0 539.0Q670.0 537.0 653.0 536.0Q636.0 535.0 611.0 535.0Q585.0 535.0 564.5 534.0Q544.0 533.0 539.0 532.0Q530.0 526.0 529.5 513.5Q529.0 501.0 529.0 499.0Q529.0 480.0 537.0 472.0Q542.0 469.0 564.5 466.0Q587.0 463.0 620.0 463.0L693.0 461.0L695.0 420.0Q696.0 409.0 696.0 402.0Q696.0 387.0 692.5 384.5Q689.0 382.0 683.0 382.0Q671.0 382.0 643.0 389.0Q623.0 395.0 616.0 395.5Q609.0 396.0 607.0 396.0Q599.0 396.0 594.0 393.0Q573.0 381.0 573.0 363.0Q573.0 361.0 574.0 350.0Q575.0 339.0 598.0 332.0Q607.0 328.0 635.0 322.0Q663.0 316.0 697.0 308.0Q769.0 294.0 790.0 292.5Q811.0 291.0 817.0 291.0Q841.0 291.0 850.0 299.0Q860.0 309.0 860.0 318.0Q860.0 326.0 849.5 338.0Q839.0 350.0 796.0 362.0L765.0 371.0L767.0 413.0Q769.0 431.0 770.0 443.0L771.0 456.0Q773.0 456.0 787.0 457.0Q801.0 458.0 823.0 458.0Q866.0 460.0 895.0 465.0Q924.0 470.0 924.0 478.0Q924.0 479.0 925.5 483.5Q927.0 488.0 927.0 494.0Q928.0 495.0 928.0 497.0Q928.0 500.0 925.0 506.0Q922.0 512.0 915.0 519.0Q906.0 530.0 896.0 533.0Q886.0 536.0 867.0 536.0Q857.0 536.0 843.0 535.0Q819.0 535.0 804.0 537.0Q789.0 539.0 789.0 541.0Q789.0 544.0 798.0 557.5Q807.0 571.0 821.0 589.0Q836.0 605.0 851.0 627.0Q866.0 649.0 877.0 663.0Q886.0 676.0 895.0 689.5Q904.0 703.0 909.0 710.0Q920.0 725.0 920.0 743.0Q920.0 749.0 916.5 764.5Q913.0 780.0 891.0 782.0Q882.0 782.0 856.0 755.0Q830.0 728.0 801.0 690.0Q792.0 677.0 784.0 670.0Q776.0 663.0 774.0 663.0Q771.0 667.0 770.0 705.5Q769.0 744.0 769.0 802.0V938.0L753.0 947.0Q744.0 955.0 737.5 955.0Q731.0 955.0 722.0 949.0Q715.0 946.0 709.5 942.0Q704.0 938.0 702.0 935.0Q701.0 931.0 699.0 889.5Q697.0 848.0 697.0 791.0Q697.0 726.0 695.0 690.0Q693.0 654.0 692.0 652.0Q688.0 652.0 683.5 658.5Q679.0 665.0 675.0 674.0Q670.0 683.0 655.5 710.0Q641.0 737.0 621.0 769.0Q594.0 814.0 582.0 829.5Q570.0 845.0 562.0 845.0Q561.0 845.0 560.0 845.0Q558.0 845.0 556.0 845.0Q544.0 845.0 533.0 834.0Q522.0 823.0 522.0 803.0Q524.0 791.0 539.0 761.0ZM123.0 141.0Q128.0 137.0 161.5 135.5Q195.0 134.0 243.0 132.0L357.0 130.0L360.0 110.0Q362.0 101.0 365.5 92.0Q369.0 83.0 373.0 80.0Q383.0 69.0 397.0 69.0Q399.0 69.0 408.5 70.0Q418.0 71.0 429.0 85.0Q434.0 92.0 435.5 98.5Q437.0 105.0 437.0 108.0Q437.0 111.0 436.0 114.0Q436.0 115.0 436.0 117.0Q436.0 122.0 442.5 125.0Q449.0 128.0 476.0 130.0Q495.0 132.0 521.5 133.0Q548.0 134.0 569.0 134.0Q603.0 134.0 611.5 132.0Q620.0 130.0 620.0 121.0Q620.0 120.0 620.0 119.0Q620.0 103.0 630.5 89.5Q641.0 76.0 656.0 76.0Q668.0 76.0 679.0 85.0Q690.0 94.0 692.0 105.0Q692.0 110.0 692.5 114.5Q693.0 119.0 693.0 123.0Q693.0 127.0 718.5 129.5Q744.0 132.0 803.0 134.0Q873.0 136.0 895.5 138.5Q918.0 141.0 922.0 150.0Q930.0 162.0 930.0 172.0Q930.0 173.0 929.5 179.5Q929.0 186.0 918.0 195.0Q911.0 202.0 894.5 204.5Q878.0 207.0 852.0 207.0Q834.0 207.0 810.0 206.0Q740.0 206.0 712.0 210.5Q684.0 215.0 684.0 225.0Q684.0 226.0 684.0 226.0Q684.0 236.0 671.5 246.0Q659.0 256.0 645.0 258.0Q629.0 256.0 618.0 247.0Q607.0 238.0 607.0 226.0Q607.0 220.0 605.0 215.5Q603.0 211.0 602.0 209.0Q598.0 208.0 576.5 206.0Q555.0 204.0 524.0 202.0L452.0 197.0L449.0 218.0Q438.0 249.0 412.0 249.0Q386.0 249.0 373.0 218.0L366.0 200.0H254.0Q215.0 201.0 190.0 201.0Q171.0 201.0 153.0 200.0Q135.0 199.0 132.0 193.0Q121.0 182.0 119.5 171.5Q118.0 161.0 118.0 157.0Q118.0 146.0 123.0 141.0ZM94.0 899.0Q96.0 892.0 103.0 874.0Q110.0 856.0 121.0 834.0Q139.0 798.0 146.0 790.5Q153.0 783.0 160.0 783.0Q164.0 783.0 168.0 784.0Q180.0 784.0 184.5 788.5Q189.0 793.0 191.0 807.0Q191.0 834.0 175.0 874.5Q159.0 915.0 144.0 924.0Q138.0 926.0 133.0 926.0Q122.0 926.0 109.0 918.5Q96.0 911.0 94.0 899.0ZM414.0 776.0Q423.0 768.0 433.0 768.0Q443.0 768.0 458.5 779.5Q474.0 791.0 490.0 836.0Q501.0 861.0 501.5 866.0Q502.0 871.0 502.0 872.0Q502.0 880.0 494.0 890.0Q483.0 905.0 472.0 905.0Q467.0 905.0 457.0 900.0Q447.0 895.0 434.0 861.0Q429.0 848.0 423.5 835.5Q418.0 823.0 414.0 818.0Q407.0 805.0 406.5 799.5Q406.0 794.0 406.0 793.0Q406.0 784.0 414.0 776.0ZM229.0 775.0Q234.0 774.0 239.0 773.0Q254.0 774.0 265.0 789.5Q276.0 805.0 285.0 852.0Q288.0 871.0 288.0 884.0Q288.0 894.0 285.5 905.5Q283.0 917.0 270.0 920.0Q266.0 921.0 263.0 921.0Q252.0 921.0 243.0 909.0Q234.0 897.0 227.0 863.0Q218.0 816.0 218.0 796.0Q218.0 776.0 229.0 775.0ZM310.0 807.0Q310.0 796.0 315.0 793.0Q323.0 783.0 336.0 783.0Q337.0 783.0 345.0 783.5Q353.0 784.0 360.0 794.0Q362.0 798.0 367.5 813.5Q373.0 829.0 380.0 847.0Q389.0 874.0 389.5 879.5Q390.0 885.0 390.0 886.0Q390.0 894.0 384.0 902.0Q373.0 919.0 362.0 919.0Q354.0 919.0 341.0 907.0Q328.0 895.0 315.0 841.0Q310.0 818.0 310.0 807.0ZM209.0 433.0 317.0 429.0 332.0 391.0Q339.0 371.0 340.0 365.0Q341.0 359.0 341.0 357.0Q341.0 353.0 339.0 352.0Q320.0 346.0 307.0 346.0Q304.0 346.0 295.5 347.0Q287.0 348.0 272.0 362.0Q263.0 371.0 250.5 384.0Q238.0 397.0 231.0 407.0ZM360.0 672.0 429.0 668.0V616.0L360.0 613.0ZM355.0 507.0V524.0Q355.0 541.0 359.5 545.5Q364.0 550.0 378.0 550.0Q390.0 551.0 399.0 551.0Q413.0 551.0 419.0 548.0Q425.0 545.0 425.0 530.0Q425.0 527.0 425.0 523.0V499.0L393.0 496.0H369.0Q359.0 496.0 357.0 497.0Q355.0 499.0 355.0 507.0ZM292.0 546.0 296.0 497.0H224.0V550.0ZM224.0 614.0 225.0 638.0Q225.0 656.0 230.5 659.5Q236.0 663.0 258.0 665.0L288.0 667.0V614.0Z" fill="black"></path></svg>